<?xml version="1.0" standalone="no"?>
<!DOCTYPE svg PUBLIC "-//W3C//DTD SVG 20010904//EN"
 "http://www.w3.org/TR/2001/REC-SVG-20010904/DTD/svg10.dtd">
<svg version="1.0" xmlns="http://www.w3.org/2000/svg"
 width="612.000000pt" height="612.000000pt" viewBox="0 0 612.000000 612.000000"
 preserveAspectRatio="xMidYMid meet">
<metadata>
Created by potrace 1.14, written by Peter Selinger 2001-2017
</metadata>
<g transform="translate(0.000000,612.000000) scale(0.100000,-0.100000)"
fill="#000000" stroke="none">
<path d="M2140 4460 c-281 -36 -496 -159 -641 -364 -125 -177 -140 -305 -90
-759 38 -344 59 -418 155 -541 36 -47 135 -113 183 -122 l34 -6 -8 -72 c-27
-244 19 -458 138 -633 140 -207 322 -306 564 -307 168 0 324 38 498 124 l85
41 84 -40 c508 -245 927 -133 1134 302 69 146 93 322 70 515 -7 66 -7 72 10
72 63 1 174 82 233 171 66 98 87 183 122 496 48 431 38 546 -63 718 -52 88
-191 227 -278 278 -164 95 -310 130 -535 130 -178 0 -269 -15 -475 -77 l-115
-35 -195 2 c-193 3 -196 3 -319 40 -69 21 -163 44 -210 52 -107 19 -295 26
-381 15z m307 -141 c43 -5 95 -15 116 -20 l38 -10 -71 -36 c-86 -42 -182 -130
-229 -207 -73 -122 -91 -206 -131 -621 -39 -405 -86 -536 -212 -599 -65 -33
-150 -35 -207 -7 -50 26 -108 91 -137 155 -36 80 -52 188 -100 686 -23 246
138 488 404 604 131 57 348 80 529 55z m1563 -3 c181 -30 311 -94 426 -211
126 -130 185 -289 169 -460 -56 -591 -72 -666 -161 -765 -75 -83 -183 -104
-282 -54 -121 60 -170 189 -207 544 -39 386 -46 440 -66 510 -11 41 -35 102
-52 135 -46 87 -156 194 -244 238 -83 41 -83 41 52 63 109 17 263 17 365 0z
m-715 -121 c104 -22 154 -39 245 -83 90 -44 139 -91 180 -172 40 -79 55 -151
74 -345 31 -310 38 -371 57 -471 35 -183 82 -288 161 -359 45 -41 71 -56 149
-88 43 -17 46 -28 55 -172 10 -158 -21 -294 -97 -426 -154 -267 -408 -349
-744 -243 -108 34 -264 109 -272 130 -8 21 14 233 29 275 7 21 27 38 77 64 94
50 142 101 148 159 7 56 -11 88 -65 115 -108 55 -355 55 -464 0 -46 -23 -68
-54 -68 -96 0 -70 37 -114 147 -175 52 -28 74 -47 81 -68 14 -39 36 -254 29
-274 -11 -29 -196 -112 -332 -148 -109 -29 -295 -31 -375 -4 -161 55 -286 183
-359 368 -40 100 -55 207 -48 326 10 142 14 152 73 174 68 26 158 98 195 156
78 123 106 257 154 752 19 194 35 271 71 342 40 79 62 105 129 148 97 63 221
105 380 130 85 13 296 5 390 -15z"/>
<path d="M2556 3070 c-16 -5 -42 -21 -58 -36 -78 -76 -45 -203 63 -236 73 -21
160 33 175 110 13 67 -35 143 -103 161 -43 12 -38 12 -77 1z"/>
<path d="M3463 3060 c-48 -24 -69 -52 -78 -103 -14 -76 38 -149 116 -162 52
-9 123 25 146 69 64 122 -62 257 -184 196z"/>
<path d="M2765 2226 c-12 -9 -15 -19 -10 -35 9 -30 59 -26 63 6 4 29 -28 47
-53 29z"/>
<path d="M3304 2215 c-10 -25 4 -45 30 -45 25 0 39 20 30 45 -4 8 -17 15 -30
15 -14 0 -27 -7 -30 -15z"/>
<path d="M2639 2194 c-15 -18 -2 -47 24 -52 22 -5 42 35 26 54 -15 18 -33 18
-50 -2z"/>
<path d="M3429 2194 c-16 -20 -1 -48 29 -52 16 -3 23 3 28 23 10 41 -30 61
-57 29z"/>
<path d="M2737 2104 c-12 -12 -8 -41 8 -54 20 -17 47 5 43 34 -3 21 -37 34
-51 20z"/>
<path d="M3337 2104 c-13 -13 -7 -52 9 -58 22 -9 46 13 42 38 -3 21 -37 34
-51 20z"/>
</g>
</svg>
